<svg xmlns="http://www.w3.org/2000/svg" version="1.1" xmlns:xlink="http://www.w3.org/1999/xlink" viewBox="0 0 200 200"><rect width="200" height="200" fill="url('#gradient')"></rect><defs><linearGradient id="gradient" gradientTransform="rotate(0 0.5 0.5)"><stop offset="0%" stop-color="#004757"></stop><stop offset="100%" stop-color="#00baf4"></stop></linearGradient></defs><g><g fill="#99c52c" transform="matrix(4.301050061050061,0,0,4.301050061050061,9.394041582982041,130.57984137480366)" stroke="#11bdc7" stroke-width="0.2"><path d="M8.87 0L6.36-5.02L4.50-5.02L4.50 0L1.07 0L1.07-14.22L6.67-14.22Q9.20-14.22 10.63-13.10Q12.05-11.97 12.05-9.92L12.05-9.92Q12.05-8.44 11.45-7.46Q10.85-6.48 9.57-5.88L9.57-5.88L12.54-0.15L12.54 0L8.87 0ZM4.50-11.57L4.50-7.67L6.67-7.67Q7.65-7.67 8.14-8.18Q8.63-8.69 8.63-9.61Q8.63-10.53 8.13-11.05Q7.64-11.57 6.67-11.57L6.67-11.57L4.50-11.57ZM23.15-14.22L25.14-5.30L26.77-14.22L30.17-14.22L27.15 0L23.59 0L21.69-8.11L19.82 0L16.28 0L13.25-14.22L16.66-14.22L18.29-5.30L20.24-14.22L23.15-14.22ZM41.06 0L37.63 0L37.63-4.99L35.65-4.99L33.25 0L29.53 0L32.45-6.15Q30.55-7.39 30.55-9.79L30.55-9.79Q30.55-11.90 31.93-13.06Q33.32-14.22 35.93-14.22L35.93-14.22L41.06-14.22L41.06 0ZM33.96-9.49L33.96-9.49Q33.96-8.41 34.40-7.92Q34.84-7.43 35.88-7.43L35.88-7.43L37.63-7.43L37.63-11.57L35.90-11.57Q34.87-11.57 34.42-11.04Q33.96-10.51 33.96-9.49Z"></path></g></g></svg>